<?xml version="1.0" encoding="utf-8"?>
<!-- Generator: Adobe Illustrator 22.0.1, SVG Export Plug-In . SVG Version: 6.00 Build 0)  -->
<svg version="1.1" id="Calque_1" xmlns="http://www.w3.org/2000/svg" xmlns:xlink="http://www.w3.org/1999/xlink" x="0px" y="0px"
	 viewBox="0 0 1000 1000" style="enable-background:new 0 0 1000 1000;" xml:space="preserve">
<g>
	<path d="M133.3,482.8v100.3h63v25.7h-91.1v-126H133.3z"/>
	<path d="M231.4,572.8c1.3,8.6,9.5,15.7,24.1,15.7c7,0,16.7-1.6,23-7l14.6,16.2c-9.5,9.4-24.8,13.1-38.2,13.1
		c-32.2,0-49.9-18.9-49.9-47.3c0-27,18.2-45.9,47.2-45.9c30.2,0,50,18.9,44.5,55.3H231.4z M273.5,553.9
		c-0.5-9.7-10.4-14.2-21.2-14.2c-10.4,0-18.4,5.4-20.9,14.2H273.5z"/>
	<path d="M349.3,495.6v24.8h22.5V542h-22.7v33.5c0,9.4,5.2,11.9,10.1,11.9c3.1,0,7.9-0.7,10.8-2.2l5.9,21.6
		c-6.5,2.5-11.7,3.6-18.7,4c-19.3,0.9-33.8-7.6-33.8-35.3V542h-15.8v-21.6h15.8v-22L349.3,495.6z"/>
	<path d="M395.5,482.8H422l-15.1,43.6h-20.2L395.5,482.8z"/>
	<path d="M490,545.1c-6.7-4.7-13-6.5-21.1-6.5c-8.5,0-12.8,3.1-12.8,7.4c0,4.9,4.5,7.6,13.1,7.7c17.5,0.5,38.5,4.1,38.7,28.6
		c0.2,14.4-10.6,29.9-38.9,29.9c-13.1,0-26.6-2.5-41.8-15.1l11.2-18.4c11,9,21.6,11,31,11.2c7.6,0.2,13.5-2.9,13.3-7.6
		c0-4.1-3.1-7.6-15.1-7.9c-16.6-0.7-37.3-7.6-37.3-28.4c0-20.2,19.1-28.6,38.3-28.6c13.7,0,24.7,3.4,34,11.5L490,545.1z"/>
	<path d="M665.2,608.8h-95.9c0-41.9,0-84.1,0-126h93.4v25.7h-65.9v24.3h62.1v24.7h-62.1v25.4h68.4V608.8z"/>
	<path d="M751.2,519.9h24.3c0,29.5,0,59.4,0,88.9h-23.4l-1.4-11.2c-5.9,9.4-18.7,13-27.4,13.1c-26.6,0.2-45.9-17.1-45.9-46.4
		c0-29.5,20.3-46.8,46.6-46.4c11.2,0,21.6,4.3,26.3,12.2L751.2,519.9z M703.3,564.4c0,14.8,10.4,23.4,23.4,23.4
		c14.6,0,23.6-11.3,23.6-22.5c0-12.8-8.1-24.5-23.6-24.5C713.8,540.8,703.3,549.6,703.3,564.4z"/>
	<path d="M832.8,495.6v24.8h22.5V542h-22.7v33.5c0,9.4,5.2,11.9,10.1,11.9c3.1,0,7.9-0.7,10.8-2.2l5.9,21.6
		c-6.5,2.5-11.7,3.6-18.7,4c-19.3,0.9-33.8-7.6-33.8-35.3V542H791v-21.6h15.8v-22L832.8,495.6z"/>
	<path d="M900.4,595.7c0,19.4-29.5,19.4-29.5,0S900.4,576.2,900.4,595.7z"/>
</g>
<g>
	<path d="M474.5,451.3c-3.8,4.6-9.7,5.6-15.5-0.3c-5.3-5.3-3.3-10.6,0.8-14.6l105.6-105.6c2.1-2.1,3.3-1.2,4.3,0.5
		c8.2,15.8-10.2,44.7-31.3,65.9c-15.4,15.4-16.6-3.7-26.6,8.8L474.5,451.3z"/>
	<path d="M487.5,388.3l6.2,7l9.1-9.1l-7-6.2c6.8-9,4-18.7-4.4-25.7l-30.6-26.2c-1.7-1.4-3.3-1.5-4.9,0c-1.5,1.5-1.5,3.3,0,4.9
		l23.9,23.9c1.5,1.5,1.5,3.5,0,5.2v0.2c-1.5,1.5-3.5,1.5-5.2,0l-24-24c-1.5-1.5-3.3-1.5-4.9,0s-1.5,3.3,0,4.9l23.9,23.9
		c1.5,1.5,1.5,3.5,0,5.2v0.2c-1.5,1.5-3.5,1.5-5.2,0l-23.9-23.9c-1.5-1.5-3.3-1.5-4.9,0c-1.5,1.5-1.4,3.2,0,4.9l26,30.6
		C468.9,392.3,478.5,395,487.5,388.3z"/>
	<path d="M559,435.8l-30.7-27.4c-0.5,0-0.8,0.2-1.2,0.2c-2.7,0-4.9-0.8-6.5-1.4c-0.8-0.3-1.7-0.6-2-0.6c0,0-0.9,0.2-2.9,2.6
		l-4.6,5.6l32.6,36.5c4.7,5.2,10.2,5,15.4-0.2S564.1,440.5,559,435.8z"/>
</g>
</svg>
